<svg aria-hidden="true" style="position: absolute; width: 0; height: 0; overflow: hidden;" version="1.1" xmlns="http://www.w3.org/2000/svg" xmlns:xlink="http://www.w3.org/1999/xlink">
<defs>
<symbol id="icon-twitter" viewBox="0 0 24 24">
<path d="M20.833 5.262c-0.186 0.242-0.391 0.475-0.616 0.696-0.233 0.232-0.347 0.567-0.278 0.908 0.037 0.182 0.060 0.404 0.061 0.634 0 5.256-2.429 8.971-5.81 10.898-2.647 1.509-5.938 1.955-9.222 1.12 1.245-0.361 2.46-0.921 3.593-1.69 0.147-0.099 0.273-0.243 0.352-0.421 0.224-0.505-0.003-1.096-0.508-1.32-2.774-1.233-4.13-2.931-4.769-4.593-0.417-1.084-0.546-2.198-0.52-3.227 0.021-0.811 0.138-1.56 0.278-2.182 0.394 0.343 0.803 0.706 1.235 1.038 2.051 1.577 4.624 2.479 7.395 2.407 0.543-0.015 0.976-0.457 0.976-1v-1.011c-0.002-0.179 0.009-0.357 0.034-0.533 0.113-0.806 0.504-1.569 1.162-2.141 0.725-0.631 1.636-0.908 2.526-0.846s1.753 0.463 2.384 1.188c0.252 0.286 0.649 0.416 1.033 0.304 0.231-0.067 0.463-0.143 0.695-0.228zM22.424 2.183c-0.74 0.522-1.523 0.926-2.287 1.205-0.931-0.836-2.091-1.302-3.276-1.385-1.398-0.097-2.836 0.339-3.977 1.332-1.036 0.901-1.652 2.108-1.83 3.372-0.037 0.265-0.055 0.532-0.054 0.8-1.922-0.142-3.693-0.85-5.15-1.97-0.775-0.596-1.462-1.309-2.034-2.116-0.32-0.45-0.944-0.557-1.394-0.237-0.154 0.109-0.267 0.253-0.335 0.409 0 0-0.132 0.299-0.285 0.76-0.112 0.337-0.241 0.775-0.357 1.29-0.163 0.722-0.302 1.602-0.326 2.571-0.031 1.227 0.12 2.612 0.652 3.996 0.683 1.775 1.966 3.478 4.147 4.823-1.569 0.726-3.245 1.039-4.873 0.967-0.552-0.024-1.019 0.403-1.043 0.955-0.017 0.389 0.19 0.736 0.513 0.918 4.905 2.725 10.426 2.678 14.666 0.261 4.040-2.301 6.819-6.7 6.819-12.634-0.001-0.167-0.008-0.33-0.023-0.489 1.006-1.115 1.676-2.429 1.996-3.781 0.127-0.537-0.206-1.076-0.743-1.203-0.29-0.069-0.58-0.003-0.807 0.156z"></path>
</symbol>
<symbol id="icon-facebook" viewBox="0 0 24 24">
<path d="M14.25 4.5h3.75v-4.5h-3.75c-2.895 0-5.25 2.355-5.25 5.25v2.25h-3v4.5h3v12h4.5v-12h3.75l0.75-4.5h-4.5v-2.25c0-0.407 0.343-0.75 0.75-0.75z"></path>
</symbol>
<symbol id="icon-instagram" viewBox="0 0 24 24">
<path d="M12 2.161c3.206 0 3.586 0.014 4.847 0.070 1.172 0.052 1.805 0.248 2.227 0.413 0.558 0.216 0.961 0.478 1.378 0.895 0.422 0.422 0.68 0.82 0.9 1.378 0.164 0.422 0.361 1.059 0.413 2.227 0.056 1.266 0.070 1.645 0.070 4.847s-0.014 3.586-0.070 4.847c-0.052 1.172-0.248 1.805-0.413 2.227-0.216 0.558-0.478 0.961-0.895 1.378-0.422 0.422-0.82 0.68-1.378 0.9-0.422 0.164-1.059 0.361-2.227 0.413-1.266 0.056-1.645 0.070-4.847 0.070s-3.586-0.014-4.847-0.070c-1.172-0.052-1.805-0.248-2.227-0.413-0.558-0.216-0.961-0.478-1.378-0.895-0.422-0.422-0.68-0.82-0.9-1.378-0.164-0.422-0.361-1.059-0.412-2.227-0.056-1.266-0.070-1.645-0.070-4.847s0.014-3.586 0.070-4.847c0.052-1.172 0.248-1.805 0.412-2.227 0.216-0.558 0.478-0.961 0.895-1.378 0.422-0.422 0.82-0.68 1.378-0.9 0.422-0.164 1.059-0.361 2.227-0.413 1.261-0.056 1.641-0.070 4.847-0.070zM12 0c-3.258 0-3.666 0.014-4.945 0.070-1.275 0.056-2.152 0.262-2.911 0.558-0.792 0.309-1.463 0.717-2.128 1.387-0.67 0.666-1.078 1.336-1.388 2.123-0.295 0.764-0.502 1.636-0.558 2.911-0.056 1.284-0.070 1.692-0.070 4.95s0.014 3.666 0.070 4.945c0.056 1.275 0.262 2.152 0.558 2.911 0.309 0.792 0.717 1.462 1.388 2.128 0.666 0.666 1.336 1.078 2.123 1.383 0.764 0.295 1.636 0.502 2.911 0.558 1.28 0.056 1.688 0.070 4.945 0.070s3.666-0.014 4.945-0.070c1.275-0.056 2.152-0.262 2.911-0.558 0.788-0.305 1.458-0.717 2.123-1.383s1.078-1.336 1.383-2.123c0.295-0.764 0.502-1.636 0.558-2.911 0.056-1.28 0.070-1.688 0.070-4.945s-0.014-3.666-0.070-4.945c-0.056-1.275-0.262-2.152-0.558-2.911-0.295-0.797-0.703-1.467-1.373-2.133-0.666-0.666-1.336-1.078-2.123-1.383-0.764-0.295-1.636-0.502-2.911-0.558-1.284-0.061-1.692-0.075-4.95-0.075v0z"></path>
<path d="M12 5.836c-3.403 0-6.164 2.761-6.164 6.164s2.761 6.164 6.164 6.164 6.164-2.761 6.164-6.164c0-3.403-2.761-6.164-6.164-6.164zM12 15.998c-2.208 0-3.998-1.791-3.998-3.998s1.791-3.998 3.998-3.998c2.208 0 3.998 1.791 3.998 3.998s-1.791 3.998-3.998 3.998z"></path>
<path d="M19.847 5.592c0 0.795-0.644 1.439-1.439 1.439s-1.439-0.644-1.439-1.439c0-0.795 0.644-1.439 1.439-1.439s1.439 0.644 1.439 1.439z"></path>
</symbol>
</defs>
</svg>
